<mxfile host="app.diagrams.net" modified="2020-08-08T12:34:41.499Z" agent="5.0 (Windows)" etag="Bp-4yDByN19jv624CObl" version="13.6.1" type="github">
  <diagram name="Page-1" id="b33cb84f-bf7a-9ccf-f142-242d16432e5d">
    <mxGraphModel dx="3528" dy="799" grid="0" gridSize="10" guides="1" tooltips="1" connect="1" arrows="1" fold="1" page="0" pageScale="1.5" pageWidth="1169" pageHeight="826" background="#ffffff" math="0" shadow="0">
      <root>
        <mxCell id="0" style=";html=1;" />
        <mxCell id="1" style=";html=1;" parent="0" />
        <mxCell id="8siiK57ULyjzDInwMOp9-13" style="edgeStyle=orthogonalEdgeStyle;rounded=0;orthogonalLoop=1;jettySize=auto;html=1;" edge="1" parent="1" source="8siiK57ULyjzDInwMOp9-2" target="8siiK57ULyjzDInwMOp9-12">
          <mxGeometry relative="1" as="geometry" />
        </mxCell>
        <mxCell id="8siiK57ULyjzDInwMOp9-2" value="" style="shape=ext;double=1;rounded=0;whiteSpace=wrap;html=1;fillColor=#f5f5f5;strokeColor=#666666;fontColor=#333333;" vertex="1" parent="1">
          <mxGeometry x="-2659" y="-252" width="233" height="181" as="geometry" />
        </mxCell>
        <mxCell id="8siiK57ULyjzDInwMOp9-3" value="" style="line;strokeWidth=4;html=1;perimeter=backbonePerimeter;points=[];outlineConnect=0;" vertex="1" parent="1">
          <mxGeometry x="-2619" y="-216" width="160" height="10" as="geometry" />
        </mxCell>
        <UserObject label="&lt;font style=&quot;font-size: 15px&quot;&gt;ToDo List&lt;/font&gt;" placeholders="1" name="Variable" id="8siiK57ULyjzDInwMOp9-5">
          <mxCell style="text;html=1;strokeColor=none;fillColor=none;align=center;verticalAlign=middle;whiteSpace=wrap;overflow=hidden;" vertex="1" parent="1">
            <mxGeometry x="-2579" y="-240" width="80" height="20" as="geometry" />
          </mxCell>
        </UserObject>
        <UserObject label="&lt;font style=&quot;font-size: 7px&quot;&gt;add mission&lt;/font&gt;" placeholders="1" name="Variable" id="8siiK57ULyjzDInwMOp9-6">
          <mxCell style="text;html=1;strokeColor=none;fillColor=none;align=center;verticalAlign=middle;whiteSpace=wrap;overflow=hidden;" vertex="1" parent="1">
            <mxGeometry x="-2623" y="-173.5" width="47" height="17" as="geometry" />
          </mxCell>
        </UserObject>
        <mxCell id="8siiK57ULyjzDInwMOp9-7" value="" style="rounded=0;whiteSpace=wrap;html=1;" vertex="1" parent="1">
          <mxGeometry x="-2566" y="-170" width="103" height="10" as="geometry" />
        </mxCell>
        <mxCell id="8siiK57ULyjzDInwMOp9-12" value="" style="shape=ext;double=1;rounded=0;whiteSpace=wrap;html=1;fillColor=#dae8fc;strokeColor=#6c8ebf;" vertex="1" parent="1">
          <mxGeometry x="-2354" y="-259" width="233" height="181" as="geometry" />
        </mxCell>
        <mxCell id="8siiK57ULyjzDInwMOp9-14" value="" style="line;strokeWidth=4;html=1;perimeter=backbonePerimeter;points=[];outlineConnect=0;" vertex="1" parent="1">
          <mxGeometry x="-2619" y="-216" width="160" height="10" as="geometry" />
        </mxCell>
        <UserObject label="&lt;font style=&quot;font-size: 15px&quot;&gt;ToDo List&lt;/font&gt;" placeholders="1" name="Variable" id="8siiK57ULyjzDInwMOp9-15">
          <mxCell style="text;html=1;strokeColor=none;fillColor=none;align=center;verticalAlign=middle;whiteSpace=wrap;overflow=hidden;" vertex="1" parent="1">
            <mxGeometry x="-2579" y="-240" width="80" height="20" as="geometry" />
          </mxCell>
        </UserObject>
        <UserObject label="&lt;font style=&quot;font-size: 15px&quot;&gt;ToDo List&lt;/font&gt;" placeholders="1" name="Variable" id="8siiK57ULyjzDInwMOp9-16">
          <mxCell style="text;html=1;strokeColor=none;fillColor=none;align=center;verticalAlign=middle;whiteSpace=wrap;overflow=hidden;" vertex="1" parent="1">
            <mxGeometry x="-2277.5" y="-240" width="80" height="20" as="geometry" />
          </mxCell>
        </UserObject>
        <mxCell id="8siiK57ULyjzDInwMOp9-17" value="" style="line;strokeWidth=4;html=1;perimeter=backbonePerimeter;points=[];outlineConnect=0;" vertex="1" parent="1">
          <mxGeometry x="-2314" y="-216" width="156.5" height="10" as="geometry" />
        </mxCell>
        <mxCell id="8siiK57ULyjzDInwMOp9-18" value="add" style="text;html=1;strokeColor=none;fillColor=none;align=center;verticalAlign=middle;whiteSpace=wrap;rounded=0;" vertex="1" parent="1">
          <mxGeometry x="-2410" y="-193.5" width="40" height="20" as="geometry" />
        </mxCell>
        <mxCell id="8siiK57ULyjzDInwMOp9-19" value="text" style="rounded=1;whiteSpace=wrap;html=1;direction=south;rotation=90;arcSize=50;fillColor=#ffe6cc;strokeColor=#d79b00;" vertex="1" parent="1">
          <mxGeometry x="-2261" y="-227.5" width="19" height="132" as="geometry" />
        </mxCell>
        <mxCell id="8siiK57ULyjzDInwMOp9-20" value="" style="ellipse;whiteSpace=wrap;html=1;aspect=fixed;fillColor=#b0e3e6;strokeColor=#0e8088;" vertex="1" parent="1">
          <mxGeometry x="-2177" y="-170" width="17" height="17" as="geometry" />
        </mxCell>
        <mxCell id="8siiK57ULyjzDInwMOp9-22" value="" style="rounded=0;whiteSpace=wrap;html=1;" vertex="1" parent="1">
          <mxGeometry x="-2263" y="-196.5" width="103" height="10" as="geometry" />
        </mxCell>
        <UserObject label="&lt;font style=&quot;font-size: 7px&quot;&gt;add mission&lt;/font&gt;" placeholders="1" name="Variable" id="8siiK57ULyjzDInwMOp9-23">
          <mxCell style="text;html=1;strokeColor=none;fillColor=none;align=center;verticalAlign=middle;whiteSpace=wrap;overflow=hidden;" vertex="1" parent="1">
            <mxGeometry x="-2314" y="-203.5" width="47" height="17" as="geometry" />
          </mxCell>
        </UserObject>
      </root>
    </mxGraphModel>
  </diagram>
</mxfile>
